# Blender v2.80 (sub 75) OBJ File: ''
# www.blender.org
o Cylinder
v 0.000000 0.000000 -1.000000
v 0.000000 0.500000 -1.000000
v 0.098017 0.000000 -0.995185
v 0.098017 0.500000 -0.995185
v 0.195090 0.000000 -0.980785
v 0.195090 0.500000 -0.980785
v 0.290285 0.000000 -0.956940
v 0.290285 0.500000 -0.956940
v 0.382683 0.000000 -0.923880
v 0.382683 0.500000 -0.923880
v 0.471397 0.000000 -0.881921
v 0.471397 0.500000 -0.881921
v 0.555570 0.000000 -0.831470
v 0.555570 0.500000 -0.831470
v 0.634393 0.000000 -0.773010
v 0.634393 0.500000 -0.773010
v 0.707107 0.000000 -0.707107
v 0.707107 0.500000 -0.707107
v 0.773010 0.000000 -0.634393
v 0.773010 0.500000 -0.634393
v 0.831470 0.000000 -0.555570
v 0.831470 0.500000 -0.555570
v 0.881921 0.000000 -0.471397
v 0.881921 0.500000 -0.471397
v 0.923880 0.000000 -0.382683
v 0.923880 0.500000 -0.382683
v 0.956940 0.000000 -0.290285
v 0.956940 0.500000 -0.290285
v 0.980785 0.000000 -0.195090
v 0.980785 0.500000 -0.195090
v 0.995185 0.000000 -0.098017
v 0.995185 0.500000 -0.098017
v 1.000000 0.000000 0.000000
v 1.000000 0.500000 0.000000
v 0.995185 0.000000 0.098017
v 0.995185 0.500000 0.098017
v 0.980785 0.000000 0.195091
v 0.980785 0.500000 0.195091
v 0.956940 0.000000 0.290285
v 0.956940 0.500000 0.290285
v 0.923879 0.000000 0.382684
v 0.923879 0.500000 0.382684
v 0.881921 0.000000 0.471397
v 0.881921 0.500000 0.471397
v 0.831469 0.000000 0.555571
v 0.831469 0.500000 0.555571
v 0.773010 0.000000 0.634394
v 0.773010 0.500000 0.634394
v 0.707106 0.000000 0.707107
v 0.707106 0.500000 0.707107
v 0.634393 0.000000 0.773011
v 0.634393 0.500000 0.773011
v 0.555570 0.000000 0.831470
v 0.555570 0.500000 0.831470
v 0.471396 0.000000 0.881922
v 0.471396 0.500000 0.881922
v 0.382683 0.000000 0.923880
v 0.382683 0.500000 0.923880
v 0.290284 0.000000 0.956941
v 0.290284 0.500000 0.956941
v 0.195090 0.000000 0.980785
v 0.195090 0.500000 0.980785
v 0.098016 0.000000 0.995185
v 0.098016 0.500000 0.995185
v -0.000001 0.000000 1.000000
v -0.000001 0.500000 1.000000
v -0.098018 0.000000 0.995185
v -0.098018 0.500000 0.995185
v -0.195091 0.000000 0.980785
v -0.195091 0.500000 0.980785
v -0.290286 0.000000 0.956940
v -0.290286 0.500000 0.956940
v -0.382684 0.000000 0.923879
v -0.382684 0.500000 0.923879
v -0.471398 0.000000 0.881921
v -0.471398 0.500000 0.881921
v -0.555571 0.000000 0.831469
v -0.555571 0.500000 0.831469
v -0.634394 0.000000 0.773010
v -0.634394 0.500000 0.773010
v -0.707108 0.000000 0.707106
v -0.707108 0.500000 0.707106
v -0.773011 0.000000 0.634393
v -0.773011 0.500000 0.634393
v -0.831470 0.000000 0.555570
v -0.831470 0.500000 0.555570
v -0.881922 0.000000 0.471396
v -0.881922 0.500000 0.471396
v -0.923880 0.000000 0.382683
v -0.923880 0.500000 0.382683
v -0.956940 0.000000 0.290285
v -0.956940 0.500000 0.290285
v -0.980785 0.000000 0.195090
v -0.980785 0.500000 0.195090
v -0.995185 0.000000 0.098017
v -0.995185 0.500000 0.098017
v -1.000000 0.000000 0.000000
v -1.000000 0.500000 0.000000
v -0.995185 0.000000 -0.098016
v -0.995185 0.500000 -0.098016
v -0.980785 0.000000 -0.195089
v -0.980785 0.500000 -0.195089
v -0.956941 0.000000 -0.290284
v -0.956941 0.500000 -0.290284
v -0.923880 0.000000 -0.382682
v -0.923880 0.500000 -0.382682
v -0.881922 0.000000 -0.471395
v -0.881922 0.500000 -0.471395
v -0.831471 0.000000 -0.555569
v -0.831471 0.500000 -0.555569
v -0.773012 0.000000 -0.634392
v -0.773012 0.500000 -0.634392
v -0.707108 0.000000 -0.707105
v -0.707108 0.500000 -0.707105
v -0.634395 0.000000 -0.773009
v -0.634395 0.500000 -0.773009
v -0.555572 0.000000 -0.831468
v -0.555572 0.500000 -0.831468
v -0.471399 0.000000 -0.881920
v -0.471399 0.500000 -0.881920
v -0.382686 0.000000 -0.923878
v -0.382686 0.500000 -0.923878
v -0.290288 0.000000 -0.956939
v -0.290288 0.500000 -0.956939
v -0.195093 0.000000 -0.980785
v -0.195093 0.500000 -0.980785
v -0.098021 0.000000 -0.995184
v -0.098021 0.500000 -0.995184
vt 1.000000 0.000000
vt 1.000000 1.000000
vt 0.984375 1.000000
vt 0.984375 0.000000
vt 0.968750 1.000000
vt 0.968750 0.000000
vt 0.953125 1.000000
vt 0.953125 0.000000
vt 0.937500 1.000000
vt 0.937500 0.000000
vt 0.921875 1.000000
vt 0.921875 0.000000
vt 0.906250 1.000000
vt 0.906250 0.000000
vt 0.890625 1.000000
vt 0.890625 0.000000
vt 0.875000 1.000000
vt 0.875000 0.000000
vt 0.859375 1.000000
vt 0.859375 0.000000
vt 0.843750 1.000000
vt 0.843750 0.000000
vt 0.828125 1.000000
vt 0.828125 0.000000
vt 0.812500 1.000000
vt 0.812500 0.000000
vt 0.796875 1.000000
vt 0.796875 0.000000
vt 0.781250 1.000000
vt 0.781250 0.000000
vt 0.765625 1.000000
vt 0.765625 0.000000
vt 0.750000 1.000000
vt 0.750000 0.000000
vt 0.734375 1.000000
vt 0.734375 0.000000
vt 0.718750 1.000000
vt 0.718750 0.000000
vt 0.703125 1.000000
vt 0.703125 0.000000
vt 0.687500 1.000000
vt 0.687500 0.000000
vt 0.671875 1.000000
vt 0.671875 0.000000
vt 0.656250 1.000000
vt 0.656250 0.000000
vt 0.640625 1.000000
vt 0.640625 0.000000
vt 0.625000 1.000000
vt 0.625000 0.000000
vt 0.609375 1.000000
vt 0.609375 0.000000
vt 0.593750 1.000000
vt 0.593750 0.000000
vt 0.578125 1.000000
vt 0.578125 0.000000
vt 0.562500 1.000000
vt 0.562500 0.000000
vt 0.546875 1.000000
vt 0.546875 0.000000
vt 0.531250 1.000000
vt 0.531250 0.000000
vt 0.515625 1.000000
vt 0.515625 0.000000
vt 0.500000 1.000000
vt 0.500000 0.000000
vt 0.484375 1.000000
vt 0.484375 0.000000
vt 0.468750 1.000000
vt 0.468750 0.000000
vt 0.453125 1.000000
vt 0.453125 0.000000
vt 0.437500 1.000000
vt 0.437500 0.000000
vt 0.421875 1.000000
vt 0.421875 0.000000
vt 0.406250 1.000000
vt 0.406250 0.000000
vt 0.390625 1.000000
vt 0.390625 0.000000
vt 0.375000 1.000000
vt 0.375000 0.000000
vt 0.359375 1.000000
vt 0.359375 0.000000
vt 0.343750 1.000000
vt 0.343750 0.000000
vt 0.328125 1.000000
vt 0.328125 0.000000
vt 0.312500 1.000000
vt 0.312500 0.000000
vt 0.296875 1.000000
vt 0.296875 0.000000
vt 0.281250 1.000000
vt 0.281250 0.000000
vt 0.265625 1.000000
vt 0.265625 0.000000
vt 0.250000 1.000000
vt 0.250000 0.000000
vt 0.234375 1.000000
vt 0.234375 0.000000
vt 0.218750 1.000000
vt 0.218750 0.000000
vt 0.203125 1.000000
vt 0.203125 0.000000
vt 0.187500 1.000000
vt 0.187500 0.000000
vt 0.171875 1.000000
vt 0.171875 0.000000
vt 0.156250 1.000000
vt 0.156250 0.000000
vt 0.140625 1.000000
vt 0.140625 0.000000
vt 0.125000 1.000000
vt 0.125000 0.000000
vt 0.109375 1.000000
vt 0.109375 0.000000
vt 0.093750 1.000000
vt 0.093750 0.000000
vt 0.078125 1.000000
vt 0.078125 0.000000
vt 0.062500 1.000000
vt 0.062500 0.000000
vt 0.046875 1.000000
vt 0.046875 0.000000
vt 0.031250 1.000000
vt 0.031250 0.000000
vt 0.015625 1.000000
vt 0.015625 0.000000
vt 0.000000 1.000000
vt 0.000000 0.000000
vn 0.0000 0.0000 -1.0000
vn 0.0980 0.0000 -0.9952
vn 0.1951 0.0000 -0.9808
vn 0.2903 0.0000 -0.9569
vn 0.3827 0.0000 -0.9239
vn 0.4714 0.0000 -0.8819
vn 0.5556 0.0000 -0.8314
vn 0.6344 0.0000 -0.7730
vn 0.7071 0.0000 -0.7071
vn 0.7730 0.0000 -0.6344
vn 0.8314 0.0000 -0.5556
vn 0.8819 0.0000 -0.4714
vn 0.9239 0.0000 -0.3827
vn 0.9569 0.0000 -0.2903
vn 0.9808 0.0000 -0.1951
vn 0.9952 0.0000 -0.0980
vn 1.0000 0.0000 0.0000
vn 0.9952 0.0000 0.0980
vn 0.9808 0.0000 0.1951
vn 0.9569 0.0000 0.2903
vn 0.9239 0.0000 0.3827
vn 0.8819 0.0000 0.4714
vn 0.8314 0.0000 0.5556
vn 0.7730 0.0000 0.6344
vn 0.7071 0.0000 0.7071
vn 0.6344 0.0000 0.7730
vn 0.5556 0.0000 0.8314
vn 0.4714 0.0000 0.8819
vn 0.3827 0.0000 0.9239
vn 0.2903 0.0000 0.9569
vn 0.1951 0.0000 0.9808
vn 0.0980 0.0000 0.9952
vn 0.0000 0.0000 1.0000
vn -0.0980 0.0000 0.9952
vn -0.1951 0.0000 0.9808
vn -0.2903 0.0000 0.9569
vn -0.3827 0.0000 0.9239
vn -0.4714 0.0000 0.8819
vn -0.5556 0.0000 0.8314
vn -0.6344 0.0000 0.7730
vn -0.7071 0.0000 0.7071
vn -0.7730 0.0000 0.6344
vn -0.8314 0.0000 0.5556
vn -0.8819 0.0000 0.4714
vn -0.9239 0.0000 0.3827
vn -0.9569 0.0000 0.2903
vn -0.9808 0.0000 0.1951
vn -0.9952 0.0000 0.0980
vn -1.0000 0.0000 0.0000
vn -0.9952 0.0000 -0.0980
vn -0.9808 0.0000 -0.1951
vn -0.9569 0.0000 -0.2903
vn -0.9239 0.0000 -0.3827
vn -0.8819 0.0000 -0.4714
vn -0.8314 0.0000 -0.5556
vn -0.7730 0.0000 -0.6344
vn -0.7071 0.0000 -0.7071
vn -0.6344 0.0000 -0.7730
vn -0.5556 0.0000 -0.8314
vn -0.4714 0.0000 -0.8819
vn -0.3827 0.0000 -0.9239
vn -0.2903 0.0000 -0.9569
vn -0.1951 0.0000 -0.9808
vn -0.0980 0.0000 -0.9952
s 1
f 1/1/1 2/2/1 4/3/2 3/4/2
f 3/4/2 4/3/2 6/5/3 5/6/3
f 5/6/3 6/5/3 8/7/4 7/8/4
f 7/8/4 8/7/4 10/9/5 9/10/5
f 9/10/5 10/9/5 12/11/6 11/12/6
f 11/12/6 12/11/6 14/13/7 13/14/7
f 13/14/7 14/13/7 16/15/8 15/16/8
f 15/16/8 16/15/8 18/17/9 17/18/9
f 17/18/9 18/17/9 20/19/10 19/20/10
f 19/20/10 20/19/10 22/21/11 21/22/11
f 21/22/11 22/21/11 24/23/12 23/24/12
f 23/24/12 24/23/12 26/25/13 25/26/13
f 25/26/13 26/25/13 28/27/14 27/28/14
f 27/28/14 28/27/14 30/29/15 29/30/15
f 29/30/15 30/29/15 32/31/16 31/32/16
f 31/32/16 32/31/16 34/33/17 33/34/17
f 33/34/17 34/33/17 36/35/18 35/36/18
f 35/36/18 36/35/18 38/37/19 37/38/19
f 37/38/19 38/37/19 40/39/20 39/40/20
f 39/40/20 40/39/20 42/41/21 41/42/21
f 41/42/21 42/41/21 44/43/22 43/44/22
f 43/44/22 44/43/22 46/45/23 45/46/23
f 45/46/23 46/45/23 48/47/24 47/48/24
f 47/48/24 48/47/24 50/49/25 49/50/25
f 49/50/25 50/49/25 52/51/26 51/52/26
f 51/52/26 52/51/26 54/53/27 53/54/27
f 53/54/27 54/53/27 56/55/28 55/56/28
f 55/56/28 56/55/28 58/57/29 57/58/29
f 57/58/29 58/57/29 60/59/30 59/60/30
f 59/60/30 60/59/30 62/61/31 61/62/31
f 61/62/31 62/61/31 64/63/32 63/64/32
f 63/64/32 64/63/32 66/65/33 65/66/33
f 65/66/33 66/65/33 68/67/34 67/68/34
f 67/68/34 68/67/34 70/69/35 69/70/35
f 69/70/35 70/69/35 72/71/36 71/72/36
f 71/72/36 72/71/36 74/73/37 73/74/37
f 73/74/37 74/73/37 76/75/38 75/76/38
f 75/76/38 76/75/38 78/77/39 77/78/39
f 77/78/39 78/77/39 80/79/40 79/80/40
f 79/80/40 80/79/40 82/81/41 81/82/41
f 81/82/41 82/81/41 84/83/42 83/84/42
f 83/84/42 84/83/42 86/85/43 85/86/43
f 85/86/43 86/85/43 88/87/44 87/88/44
f 87/88/44 88/87/44 90/89/45 89/90/45
f 89/90/45 90/89/45 92/91/46 91/92/46
f 91/92/46 92/91/46 94/93/47 93/94/47
f 93/94/47 94/93/47 96/95/48 95/96/48
f 95/96/48 96/95/48 98/97/49 97/98/49
f 97/98/49 98/97/49 100/99/50 99/100/50
f 99/100/50 100/99/50 102/101/51 101/102/51
f 101/102/51 102/101/51 104/103/52 103/104/52
f 103/104/52 104/103/52 106/105/53 105/106/53
f 105/106/53 106/105/53 108/107/54 107/108/54
f 107/108/54 108/107/54 110/109/55 109/110/55
f 109/110/55 110/109/55 112/111/56 111/112/56
f 111/112/56 112/111/56 114/113/57 113/114/57
f 113/114/57 114/113/57 116/115/58 115/116/58
f 115/116/58 116/115/58 118/117/59 117/118/59
f 117/118/59 118/117/59 120/119/60 119/120/60
f 119/120/60 120/119/60 122/121/61 121/122/61
f 121/122/61 122/121/61 124/123/62 123/124/62
f 123/124/62 124/123/62 126/125/63 125/126/63
f 125/126/63 126/125/63 128/127/64 127/128/64
f 127/128/64 128/127/64 2/129/1 1/130/1
